<svg xmlns="http://www.w3.org/2000/svg" viewBox="0 0 17 18" width="17" height="18">
	<path id="icon" class="shp0" d="M16.72 16.48L12.78 12.28C13.79 11.04 14.35 9.48 14.35 7.86C14.35 4.08 11.35 1 7.66 1C3.97 1 0.97 4.08 0.97 7.86C0.97 11.65 3.97 14.73 7.66 14.73C9.04 14.73 10.36 14.3 11.49 13.48L15.47 17.72C15.63 17.9 15.86 18 16.09 18C16.32 18 16.54 17.91 16.7 17.75C17.05 17.41 17.06 16.84 16.72 16.48ZM7.66 2.79C10.39 2.79 12.6 5.07 12.6 7.86C12.6 10.66 10.39 12.94 7.66 12.94C4.93 12.94 2.72 10.66 2.72 7.86C2.72 5.07 4.93 2.79 7.66 2.79Z" fill="#0a95dd"/>
</svg>