<svg xmlns="http://www.w3.org/2000/svg" viewBox="0 0 19 18" width="19" height="18">
	<path d="M0.42 5L1.66 11.13C1.74 11.54 2.11 11.85 2.53 11.85L13.47 11.85L13.21 13.14L2.61 13.14C2.36 13.14 2.16 13.34 2.16 13.59C2.16 13.84 2.36 14.04 2.61 14.04L13.21 14.04C13.63 14.04 13.99 13.73 14.08 13.32L16.22 2.72L18.16 1.86C18.39 1.76 18.49 1.5 18.39 1.27C18.3 1.04 18.03 0.94 17.81 1.04L15.87 1.9C15.6 2.01 15.41 2.25 15.35 2.54L15.07 3.92L1.29 3.92C1.02 3.92 0.77 4.04 0.6 4.25C0.43 4.46 0.37 4.74 0.42 5ZM14.89 4.82L13.65 10.94L2.53 10.94L1.29 4.82L14.89 4.82ZM4.92 7.16L11.26 7.16C11.51 7.16 11.7 6.96 11.7 6.71C11.7 6.46 11.51 6.26 11.26 6.26L4.92 6.26C4.67 6.26 4.48 6.46 4.48 6.71C4.48 6.96 4.67 7.16 4.92 7.16ZM10.92 8.6L5.26 8.6C5.02 8.6 4.82 8.8 4.82 9.05C4.82 9.3 5.02 9.5 5.26 9.5L10.92 9.5C11.16 9.5 11.36 9.3 11.36 9.05C11.36 8.8 11.16 8.6 10.92 8.6ZM10.87 14.77C10 14.77 9.29 15.49 9.28 16.38C9.28 17.27 10 18 10.87 18C11.74 18 12.46 17.27 12.46 16.38C12.46 15.49 11.74 14.77 10.87 14.77ZM10.87 17.1C10.48 17.1 10.17 16.78 10.17 16.38C10.17 15.99 10.48 15.67 10.87 15.67C11.26 15.67 11.57 15.99 11.57 16.38C11.57 16.78 11.26 17.1 10.87 17.1ZM5.31 14.77C4.43 14.77 3.72 15.49 3.72 16.38C3.72 17.27 4.43 18 5.31 18C6.18 18 6.89 17.27 6.89 16.38C6.89 15.49 6.18 14.77 5.31 14.77ZM5.31 17.1C4.92 17.1 4.61 16.78 4.61 16.38C4.61 15.99 4.92 15.67 5.31 15.67C5.7 15.67 6.01 15.99 6.01 16.38C6.01 16.78 5.7 17.1 5.31 17.1Z" fill="#b4bfc7" />
</svg>