<svg xmlns="http://www.w3.org/2000/svg" viewBox="0 0 108 96" width="108" height="96"><defs><clipPath clipPathUnits="userSpaceOnUse" id="cp1"><path d="M0 0L108 0L108 96L0 96Z" /></clipPath></defs><style>tspan { white-space:pre }.shp0 { fill: #1d1d1b } .shp1 { fill: none;stroke: #1d1d1b;stroke-width: 6 } </style><g clip-path="url(#cp1)"><path fill-rule="evenodd" class="shp0" d="M0 36.77L108 36.77L108 55.44L0 55.44L0 36.77ZM6.07 49.38L101.93 49.38L101.93 42.84L6.07 42.84L6.07 49.38Z" /><path class="shp1" d="M99.17 0.26L99.17 11.18" /><path class="shp0" d="M90.19 8.55L99.17 24.09L108.14 8.55L90.19 8.55Z" /><path class="shp1" d="M9.42 0.26L9.42 10.92" /><path class="shp0" d="M0.45 8.3L9.42 23.84L18.4 8.3L0.45 8.3Z" /><path class="shp1" d="M0 53.1C27 53.1 27 64.44 54 64.44C81 64.44 81 53.1 108 53.1M108 93C81 93 81 81.66 54 81.66C27 81.66 27 93 0 93" /><path fill-rule="evenodd" class="shp0" d="M63.7 42.85L44.42 42.85L44.42 0.26L63.7 0.26L63.7 42.85ZM58.01 5.95L50.1 5.95L50.1 37.17L58.01 37.17L58.01 5.95Z" /></g></svg>