<?xml version="1.0" encoding="utf-8"?><svg xmlns="http://www.w3.org/2000/svg" width="12" height="12" viewBox="0 0 12 12"><path id="aForma 1" class="ashp0" d="M1.39 2.36h.42l1 8.31c.02.2.19.34.39.34h6.6c.2 0 .36-.14.39-.34l1-8.31h.42c.22 0 .39-.17.39-.39s-.17-.39-.39-.39H8.64V.4c0-.22-.17-.39-.39-.39h-3.5c-.22 0-.39.17-.39.39v1.18H1.39c-.22 0-.39.17-.39.39s.18.39.39.39zM5.14.79h2.72v.79H5.14V.79zm5.26 1.57l-.94 7.88H3.54L2.6 2.36h7.8zm-5.19 6.7c.22 0 .39-.17.39-.39V4.02c0-.22-.17-.39-.39-.39s-.39.17-.39.39v4.65c0 .22.17.39.39.39zm2.58 0c.21 0 .39-.17.39-.39V4.02a.39.39 0 0 0-.39-.39c-.22 0-.39.17-.39.39v4.65c0 .22.18.39.39.39z" fill="#b4bfc7"/></svg>